<?xml version="1.0" encoding="utf-8"?>
<!-- Generator: Adobe Illustrator 21.1.0, SVG Export Plug-In . SVG Version: 6.00 Build 0)  -->
<svg version="1.1" xmlns="http://www.w3.org/2000/svg" xmlns:xlink="http://www.w3.org/1999/xlink" x="0px" y="0px"
	 viewBox="0 0 529 496" style="enable-background:new 0 0 529 496;" xml:space="preserve">
<style type="text/css">
	.st0{fill:#318431;}
	.st1{fill:#4CAF50;}
	.st2{fill:#A3C199;}
	.st3{fill:#CCEDC0;}
	.st4{fill:#FFFFFF;}
</style>
<g id="Layer_2">
</g>
<g id="Capa_1">
	<title>logo sq col</title>
	<polygon class="st0" points="70.4,90.3 70.4,184.1 102.9,202.9 102.9,109 	"/>
	<polygon class="st0" points="200.4,90.3 200.4,184.1 167.9,202.9 167.9,109 	"/>
	<polygon class="st1" points="135.4,52.7 200.4,90.3 167.9,109 135.4,90.3 102.9,109 70.4,90.3 70.4,52.7 102.9,71.5 	"/>
	<polygon class="st2" points="102.9,109 135.4,127.8 135.4,165.4 102.9,146.6 	"/>
	<polygon class="st3" points="167.9,109 135.4,127.8 135.4,165.4 167.9,146.6 	"/>
	<polygon class="st0" points="348.9,90.3 348.9,165.4 283.8,202.9 218.8,165.4 218.8,90.3 251.3,109 251.3,146.6 283.8,165.4 
		316.3,146.6 316.3,109 	"/>
	<polygon class="st3" points="316.3,109 283.8,127.8 283.8,165.4 316.3,146.6 	"/>
	<polygon class="st2" points="251.3,109 283.8,127.8 283.8,165.4 251.3,146.6 	"/>
	<polygon class="st1" points="283.8,52.7 348.9,90.3 316.3,109 283.8,90.3 251.3,109 218.8,90.3 	"/>
	<polygon class="st0" points="244.6,252.8 244.6,327.8 179.6,365.4 114.6,327.8 114.6,252.8 147.1,271.5 147.1,309.1 179.6,327.8 
		212.1,309.1 212.1,271.5 	"/>
	<polygon class="st3" points="212.1,309.1 179.6,290.3 179.6,252.8 212.1,271.5 	"/>
	<polygon class="st2" points="147.1,309.1 179.6,290.3 179.6,252.8 147.1,271.5 	"/>
	<polygon class="st1" points="179.6,215.2 212.1,234 212.1,177.7 244.6,196.4 244.6,252.8 212.1,271.5 179.6,252.8 147.1,271.5 
		114.6,252.8 	"/>
	<polygon class="st0" points="392.8,290.3 392.8,252.8 327.8,215.2 262.8,252.8 262.8,327.8 327.8,365.4 360.3,346.6 295.3,309 
		295.3,271.5 327.8,252.8 360.3,271.5 360.3,309.1 	"/>
	<polygon class="st2" points="360.3,271.5 327.8,290.3 327.8,327.8 360.3,309.1 	"/>
	<polygon class="st3" points="295.3,271.5 327.8,290.3 327.8,327.8 295.3,309.1 	"/>
	<polygon class="st1" points="327.8,215.2 392.8,252.8 360.3,271.5 327.8,252.8 295.3,271.5 262.8,252.8 	"/>
	<path d="M309.7,417.7c-0.4,0-0.9-0.1-1.3-0.1c-1.1-0.2-2.1-0.7-3-1.3c-1.3,2.2-2.6,4.4-4.1,6.6c-1.5,2.2-3.1,4.3-4.9,6.3
		c5.3,1.1,10.8,2.1,16.4,3.2c4.8,0.9,10.1,1.7,15.9,2.5s11.3,1.5,16.7,2c3.8,0.4,7.6,0.3,11.4-0.3c2.8-0.5,5.5-1.1,8.2-2
		c2.3-0.9,4.5-2,6.5-3.3c1.6-1.2,3.5-2.5,5.4-4.1c2-1.6,4.1-3.5,6.3-5.6c1.3-1.4,2.9-2.4,4.6-2.9c1.1-0.3,2.4-0.2,3.5,0.1
		c1.2,0.5,2.2,1.3,2.9,2.3c0.4,0.8,0.6,1.7,0.7,2.6c0,0.9-0.2,1.9-0.5,2.8c-0.5,1.3-1.4,2.5-2.5,3.5c-2.1,1.9-4.5,3.5-7,4.8
		c-2.8,1.4-5.6,2.6-8.6,3.5c-3.9,1.2-7.9,2-12,2.4c-5.2,0.4-10.4,0.5-15.6,0.4c-5.7-0.1-12-0.6-18.9-1.4c-4.1-0.5-8.3-1.1-12.7-1.7
		c-4.4-0.6-8.4-1.2-12.1-1.8c-4.3-0.7-8.5-1.3-12.6-2c-1.5,1.6-3,3.3-4.6,4.9s-3.3,3.3-5.1,4.9c-2.4,2-4.9,3.9-7.5,5.6
		c-2.8,1.8-5.6,3.5-8.5,5.1c-3.5,1.8-7.2,3.3-11,4.5c-3.1,1-6.3,1.7-9.6,2.2c-3.3,0.5-6.7,0.8-10.1,0.7c-4,0-8-0.5-11.9-1.5
		c-3-0.5-6-1.7-8.6-3.3c-1.8-1.2-3.3-2.7-4.6-4.3c-1.1-1.5-1.9-3.3-2.2-5.2c-0.2-2.4,0.3-4.8,1.4-7c1.4-2.3,3.3-4.3,5.5-5.9
		c2.7-2.1,6.7-3.9,12.2-5.2c5.2-1.4,10.5-2.3,15.8-2.8c5.1-0.5,11.2-0.7,18.4-0.8c8.1,0,16.3,0.6,24.3,1.8c2.5-3,4.7-6.3,6.6-9.7
		c1.9-3.4,3.5-6.5,4.9-9.4c1.5-3.4,2.9-6.8,4.2-10.1c-2.4,3.6-5.6,6.7-9.3,9.1c-2.2,1.4-4.6,2.4-7.1,2.9c-2.2,0.6-4.4,0.6-6.6-0.1
		c-2-0.7-3.7-2-4.8-3.8c-1.3-2.4-2.1-5.1-2.1-7.8c-0.1-4.1,0.4-8.1,1.6-12c0.9-3.5,2.1-6.8,3.6-10.1c1.2-2.7,2.6-5.3,4.2-7.8
		c1.5-2.3,3.1-4.5,4.9-6.5c1.6-1.9,3.4-3.7,5.4-5.4c1.8-1.5,3.9-2.7,6-3.8c2.4-1.2,5.1-1.8,7.8-2c2.4-0.3,4.9,0.2,7.1,1.3
		c1.8,1.1,3.3,2.7,4.1,4.6c1.1,2.2,1.3,5.4,0.6,9.6c0.8-0.7,1.7-1.2,2.8-1.5c0.9-0.2,1.9-0.1,2.8,0.4c1,0.6,1.8,1.6,2.1,2.8
		c0.3,1.2,0.4,2.4,0.3,3.6c-0.2,1.3-0.5,2.5-0.9,3.7c-0.5,1.2-0.9,2.2-1.3,3c-1.5,3.1-3.2,6.4-4.9,10c-1.7,3.6-3.1,7-4.3,10.1
		c-1.1,2.7-1.9,5.6-2.3,8.5c-0.3,2.5,0.1,4,1.2,4.7c1.2-0.6,2.3-1.4,3.3-2.3c1.2-1.1,2.3-2.3,3.5-3.6s2.4-2.8,3.5-4.3
		c1.2-1.5,2.3-3.1,3.3-4.6c2.5-3.7,5-7.6,7.4-11.9c1.9-3.3,3.6-6.2,5.1-8.8s2.7-4.5,3.6-5.9c0.1-0.2,0.3-0.4,0.6-0.4
		c0.5-0.2,1-0.1,1.5,0.1c0.5,0.2,0.6,0.8,0.3,1.7c-0.9,2.4-2,5.1-3.3,8.1c-1.2,2.5-2.7,5.4-4.6,8.7c-1.9,3.3-4.2,7-6.9,11
		c-1.6,2.4-3.3,4.7-5.1,7c-1.6,2-3.4,3.9-5.3,5.6c-1.7,1.7-3.7,3-5.9,4.1C312.7,417.3,311.2,417.6,309.7,417.7z M235.3,457.1
		c4.9,0,9.7-0.7,14.4-2c4.4-1.3,8.6-3,12.6-5.2c3.8-2.1,7.5-4.7,10.8-7.5c3.3-2.8,6.3-5.9,9.1-9.2c-4-0.3-8.5-0.5-13.2-0.6
		s-10.1,0-15.9,0.1c-10,0.4-17.7,1.3-23.1,2.8c-5.4,1.4-9.2,3-11.6,4.5c-2.9,1.8-4.5,3.9-4.8,6.2c-0.1,0.5-0.1,1.1,0,1.6l0.3,1.5
		c0.1,0.6,0.4,1.1,0.9,1.5c1.4,1.7,3.2,3,5.4,3.7c2.2,0.8,4.5,1.4,6.8,1.8C229.7,456.8,232.5,457,235.3,457.1z M292.2,402.1
		c2-1.7,3.8-3.6,5.5-5.6c1.7-2.1,3.3-4,4.6-5.9c1.5-2.1,3-4.2,4.3-6.4c0.6-1.5,1.2-2.9,2-4.4s1.5-2.9,2.3-4.1
		c0.9-1.5,1.7-2.8,2.5-4.2c0.1-0.5,0.2-1.2,0.3-2.3c0.1-1.1,0.1-2.2,0-3.3c-0.1-1.1-0.3-2.2-0.6-3.2c-0.2-0.8-0.8-1.5-1.7-1.9
		c-2.2-1-4.9-0.1-8,2.5c-3.7,3.4-7.1,7.1-10,11.2c-1.9,2.6-3.6,5.3-5,8.2c-1.5,3-2.9,6.1-4.1,9.2c-1,2.6-1.8,5.3-2.4,8.1
		c-0.5,2.4-0.6,4.1-0.1,5.1c0.3,1,1.2,1.6,2.2,1.4c1-0.1,2-0.4,2.8-0.9c0.6-0.3,1.2-0.6,1.8-1c0.6-0.3,1.1-0.7,1.7-1.2
		C291.1,403.1,291.7,402.6,292.2,402.1L292.2,402.1z"/>
	<path d="M350,407l-1.5,0.7c-1,0.4-2.1,0.8-3.2,0.9c-1.4,0.2-2.8,0.2-4.2-0.1c-1.6-0.4-3.1-1.1-4.4-2.2c-1.5-1.3-2.3-3.3-2.5-6.1
		c-0.2-3.1,0-6.3,0.6-9.3c0.7-3.5,1.7-7,2.9-10.4c1.1-3.2,2.5-6.3,4.2-9.2c2.2-3.8,4.1-6.8,5.8-9c1.4-1.9,2.9-3.7,4.5-5.4
		c0.9-0.9,1.8-1.7,2.9-2.3c0.8-0.5,1.7-0.9,2.6-1.1c1-0.3,2-0.2,2.9,0.1c1,0.5,1.8,1.4,2,2.5c0.3,1.3,0.3,2.7-0.1,4
		c-0.4,1.7-1,3.3-1.7,4.9c-0.9,1.8-1.9,3.6-3,5.2c-0.9,1.4-2.1,3.5-3.7,6.3s-3.1,5.7-4.6,8.8c-1.5,3-2.7,6.1-3.8,9.2
		c-1,2.4-1.4,4.9-1.3,7.5c0.1,0.7,0.4,1.4,0.7,2c0.4,0.7,1.2,0.7,2.3,0c0.8-0.4,1.5-0.9,2.2-1.5c0.8-0.7,1.5-1.4,2.3-2.2
		c0.9-0.9,1.7-1.8,2.5-2.8c0.8-0.9,1.5-1.8,2.2-2.8s1.5-2,2.2-3c1.5-2.1,2.9-4.3,4.2-6.5s2.7-4.3,3.9-6.2c1.2-1.9,2.2-3.6,3.1-5.1
		c0.7-1.2,1.5-2.3,2.4-3.4c0.1-0.1,0.2-0.1,0.3-0.1h0.9c0.2,0,0.4,0.1,0.6,0.1c0.5,0.3,0.7,0.8,0.6,1.3c-0.2,0.6-1,2.5-2.5,5.6
		c-0.7,1.5-1.5,3.3-2.5,5.2s-2.1,4-3.5,6.2c-1.4,2.2-2.8,4.4-4.3,6.5c-1.5,2.1-3.2,4.2-5,6.1c-0.8,0.8-1.5,1.5-2.3,2.2
		s-1.5,1.2-2.3,1.9C351.6,406,350.8,406.6,350,407z M385.6,319.8c0.9,0.7,1.6,1.6,2,2.6c0.4,0.8,0.5,1.8,0.3,2.7
		c-0.4,1.3-1.1,2.3-2.2,3.1c-1.6,1.4-3.5,2.9-5.7,4.6s-4.2,3.5-6.1,5.4c-1.7,1.7-3.2,3.5-4.5,5.6c-1.1,1.5-1.4,3.4-1.1,5.3
		c0.1,0.4,0.1,0.8,0.1,1.2c0,0.8-0.4,1.2-1.3,1.3c-1,0.2-2.1-0.1-2.8-0.8c-0.7-0.6-1.3-1.4-1.7-2.2c-0.5-1.7-0.7-3.5-0.5-5.2
		c0.2-2.3,0.6-4.5,1.4-6.7c0.8-2.4,1.9-4.8,3.3-7c1.4-2.3,3.1-4.4,5-6.2c1.5-1.3,3.2-2.5,4.9-3.5c1.4-0.8,2.9-1.3,4.4-1.5
		C382.8,318.3,384.4,318.8,385.6,319.8L385.6,319.8z"/>
	<path d="M405,360.4c0-0.4-0.2-0.7-0.6-0.9c-0.2-0.1-0.4-0.1-0.6,0c-0.5,0-1.5,0.5-3,1.7c-1.9,1.4-3.7,2.9-5.4,4.6
		c-2,1.9-4.1,4.2-6.4,6.8c-2.3,2.6-4.4,5.4-6.3,8.4c-1.9,3-3.6,6.2-5,9.5c-1.4,3.1-2.2,6.5-2.4,9.9v0.9c0,0.7,0.1,1.5,0.3,2.2
		c0.2,0.8,0.3,1.7,0.2,2.5c0,0.9-0.6,1.7-1.5,2c-1.3,0.7-2.9,0.7-4.2,0c-1.2-0.5-2.2-1.4-2.9-2.5c-1.5-2.7-2.2-5.8-2.1-8.9
		c0-3.1,0.3-6.2,0.9-9.2c1-5.2,2.6-10.2,4.6-15.1c2-4.9,4.3-9.7,6.8-14.3c0.6-1,1.3-2,2.1-3.2c0.8-1.1,1.8-2.1,2.8-3
		c1-0.8,2.2-1.5,3.4-1.9c1.3-0.4,2.6-0.3,3.8,0.1c1.1,0.3,2,1.2,2.3,2.4c0.3,1.1,0.3,2.3,0,3.5c-0.3,1.2-0.7,2.5-1.3,3.6
		c-0.5,1-1,2-1.6,3c-2.3,3.8-4.5,7.7-6.7,11.9c1.5-2.3,3.2-4.6,5.1-7c1.7-2.3,3.6-4.4,5.6-6.5c1.8-1.8,3.7-3.5,5.8-5
		c1.7-1.3,3.6-2.1,5.7-2.5c1.7-0.4,3.5-0.2,5.1,0.6c1.2,0.6,2.1,1.6,2.6,2.9c0.4,2.1,0.2,4.3-0.7,6.3c-0.8,2.2-1.9,4.3-3.3,6.1
		c-0.4,0.6-1,1.2-1.6,1.6c-0.5,0.4-1.1,0.7-1.7,0.8c-0.7,0.1-1.5-0.1-2.1-0.5c-1.3-0.7-1.9-1.5-1.8-2.5c0.1-1.1,0.4-2.2,0.9-3.1
		c0.6-1.1,1.2-2.1,2-3C404.5,362,404.9,361.2,405,360.4z"/>
	<path d="M439.9,319.4c2.5-3.2,5.2-6.3,8-9.3c2.3-2.4,4.8-4.7,7.4-6.8c1.9-1.6,4.1-2.9,6.4-3.8c1-0.4,2-0.6,3-0.7
		c0.9-0.1,1.9-0.1,2.8,0.1c1,0.1,2,0.5,2.8,1.1c1.1,0.9,2,2,2.5,3.3c0.5,1.6,0.8,3.2,0.7,4.9c-0.1,2.6-0.7,5.1-1.7,7.5
		c-1.5,3.1-3.5,6-5.9,8.4c-5.9,5.7-13.7,9.1-21.9,9.5c-1.4,2.3-2.7,4.7-3.9,7.1c-1.2,2-2.4,4.2-3.7,6.5c-1.3,2.3-2.5,4.5-3.5,6.5
		c-3.3,6.3-6.2,12.4-8.7,18.4c-1.1,2.5-2.1,5.1-3.1,7.8c-1,2.7-1.9,5.3-2.8,7.9c-0.8,2.4-1.4,4.9-1.9,7.4c-0.4,2.1-0.6,4.2-0.5,6.3
		c0.1,0.7,0.3,1.3,0.6,1.9c0.3,0.7,1,0.8,2.1,0.4c2.6-0.9,5-2.5,7-4.5c2.5-2.3,4.8-4.7,7-7.2c2.5-3,5-6.3,7.5-9.9
		c1.4-1.9,2.7-3.8,3.9-5.7s2.4-3.5,3.5-5c0.3-0.4,0.6-0.7,0.9-1c0.5-0.5,0.9-0.7,1.3-0.6c0.4,0.2,0.8,0.6,1.1,1
		c0.3,0.5,0.3,1.2-0.2,2.2c-0.8,1.6-1.6,3.1-2.6,4.8c-0.8,1.3-1.7,2.9-2.7,4.6c-1,1.7-2,3.3-3,4.9c-2.4,3.3-5,6.5-7.7,9.6
		c-2.4,2.6-5,4.9-7.8,7.1c-2.5,2.1-5.5,3.5-8.8,4.2c-1.5,0.3-3.1,0.4-4.7,0.3c-1.9-0.2-3.7-1-5.1-2.3c-1.3-1.1-2-2.7-2.2-4.4
		c-0.3-2-0.4-4-0.3-6c0.1-2.5,0.4-5.1,1-7.5c0.7-3,1.5-6.1,2.5-9.2s2-6.2,3-9s2-5.5,3-8s1.9-4.5,2.7-6.2
		C421,348.8,437.2,322.8,439.9,319.4z M463.1,320.5c1.7-1.8,3.2-3.9,4.4-6.1c0.6-1.3,1.1-2.7,1.4-4.1c0.2-1,0-2.1-0.6-2.9
		c-0.5-0.3-1.1-0.4-1.7-0.4c-0.8-0.1-2,0.4-3.6,1.6c-2.3,1.8-4.4,3.9-6.2,6.2c-3.4,4.2-6.6,8.7-9.5,13.3c2.3-0.2,4.6-0.8,6.7-1.7
		c1.7-0.7,3.4-1.6,5-2.6C460.4,322.9,461.8,321.8,463.1,320.5L463.1,320.5z"/>
	<path d="M449.9,418.7c-1.1,0.7-2.3,1.3-3.6,1.7c-1.1,0.3-2.2,0.5-3.3,0.5c-1.1,0.1-2.2,0-3.3-0.3c-1.7-0.3-3.3-1.2-4.6-2.4
		c-1-1.1-1.8-2.3-2.3-3.7c-0.4-1-0.6-2.1-0.6-3.2c-0.1-0.9,0-1.8,0.1-2.8c0.1-0.9,0.3-1.9,0.6-2.8c0.4-1.2,0.9-2.4,1.6-3.4
		c0.9-1.4,2.2-2.5,3.6-3.4c2.8-1.7,6-2.9,9.3-3.3c0.2-2.8,0.2-5.6,0-8.4c-0.1-1.5-0.2-3-0.3-4.5c-0.3-2.7-0.6-4.8-0.9-6.4
		c-0.2-1-0.3-1.8-0.4-2.6c-0.6-4-0.4-8.2,0.5-12.2c0.7-3.2,1.9-6.3,3.7-9.1c1-1.7,2.3-3.1,3.8-4.4c1.2-1.1,2.7-2,4.3-2.5
		c1.8-0.6,3.8-0.7,5.6-0.1c1.4,0.4,2.6,1.1,3.6,2.1c1.3,1.1,1.9,2.9,1.9,5.4c0,1.1-0.1,2.2-0.3,3.2c-0.3,1.6-0.9,3.2-1.7,4.6
		c-0.5,1-1.2,1.9-2,2.8c-0.7,0.7-1.5,1.3-2.3,1.9c-0.6,0.4-1.4,0.6-2.2,0.6c-0.5,0-0.9-0.2-1.2-0.6c-0.6-0.6-0.7-1.5-0.3-2.2
		c0.2-0.4,0.5-0.7,0.9-1c1-0.8,1.9-1.7,2.6-2.8c0.8-1.1,1.3-2.3,1.6-3.6c0.4-1.2,0.6-2.4,0.5-3.7c-0.1-0.7-0.4-1.3-0.9-1.8
		c-0.3-0.2-0.6-0.4-1-0.5c-0.3,0-0.6-0.1-0.9-0.1c-0.4,0.1-0.7,0.2-1,0.3c-1.4,1-2.5,2.4-3,4c-0.7,2-1,4-1.2,6.1
		c-0.1,2.2-0.1,4.4,0.1,6.7c0.2,2.2,0.4,4.1,0.7,5.8c0.3,1.5,0.7,3.9,1.2,7.2s0.8,6.7,1,10.5c3.3-1.4,6.6-3,9.7-4.7
		c2-1.2,3.6-2.2,4.9-3c0.6-0.4,1-0.5,1.2-0.2c0.2,0.3,0.3,0.7,0.3,1.1c0,0.6-0.1,1.3-0.1,1.9c-1.6,1.2-3.3,2.3-5.1,3.5
		c-1.5,1.1-3.2,2.1-5.1,3.3s-3.7,2.1-5.6,3.1c-0.1,2.2-0.3,4.4-0.6,6.5c-0.2,2-0.7,3.9-1.3,5.8c-0.5,1.4-1.1,2.7-1.7,4.1
		c-0.7,1.3-1.6,2.5-2.5,3.6C452.5,416.6,451.3,417.8,449.9,418.7z M437.7,411.8c0.1,0.3,0.3,0.6,0.4,0.9c0.2,0.2,0.4,0.4,0.7,0.7
		c0.2,0.3,0.6,0.5,0.9,0.6c0.7,0.2,1.5,0,2-0.5c0.6-0.5,1.1-1.1,1.6-1.7c0.6-0.9,1-2,1.3-3c0.3-1.1,0.5-2.1,0.7-3s0.4-1.8,0.6-2.6
		c0.2-1,0.3-1.8,0.4-2.6c-1.8,0.3-3.5,1.1-5,2.1c-1,0.7-1.9,1.6-2.7,2.7c-0.7,1-1.2,2.1-1.4,3.3c0,0.5,0,1,0.1,1.6
		C437.4,410.7,437.5,411.3,437.7,411.8L437.7,411.8z"/>
	<path d="M130.5,404.5l16.3-31.8h1.9v33.7h-1.6v-30.9l-15.8,30.9h-1.7l-15.8-30.9v30.9h-1.6v-33.7h1.9L130.5,404.5z"/>
	<path d="M175.4,402.6c0,2.1,0.3,3.1,3.1,3.1v1.5c-3.9,0-4.7-1.8-4.7-4.6c-3.1,3-7.2,4.7-11.4,4.8c-6.5,0-9.4-3-9.4-7.3
		c0-3.9,3-7.2,6.9-7.5l13.9-1.4v-2c0-4.5-3.5-5.9-8.6-5.9c-4.9,0-8.3,1.3-8.6,5.4H155c0-5,4.2-6.9,10.2-6.9s10.2,2,10.2,6.9
		L175.4,402.6z M173.8,400.8v-8.2l-13.3,1.3c-7.4,0.7-8.6,11.9,1.9,11.9C168.3,405.8,173.8,401.2,173.8,400.8L173.8,400.8z"/>
	<path d="M193.7,381.7c6.2,0,9.4,2.8,11.2,5.1h0.1v-15h1.6v34.6h-1.6v-4.2h-0.1c-1.8,2.4-4.9,5.1-11.2,5.1
		c-6.6,0-12.4-4.3-12.4-12.8S187,381.7,193.7,381.7z M204.9,398.2V391c0-4.4-5.4-7.8-10.8-7.8c-6.1,0-11.2,3.6-11.2,11.3
		s5.1,11.3,11.2,11.3C199.5,405.8,204.9,402.5,204.9,398.2z"/>
	<path d="M223.9,382.6v1.5h-2.3c-4.8,0-7.4,4.3-7.4,7.4v14.8h-1.6v-23.8h1.6v4.6h0.1c1.3-2.9,4.1-4.7,7.3-4.6H223.9z"/>
	<path d="M228.8,375.3h-1.6v-3.5h1.6V375.3z M227.2,382.6h1.6v23.8h-1.6V382.6z"/>
	<path d="M245.9,381.7c6.2,0,9.4,2.8,11.2,5.1h0.1v-15h1.6v34.6h-1.6v-4.2h-0.1c-1.8,2.4-4.9,5.1-11.2,5.1
		c-6.6,0-12.4-4.3-12.4-12.8S239.2,381.7,245.9,381.7z M257.2,398.2V391c0-4.4-5.4-7.8-10.8-7.8c-6.1,0-11.2,3.6-11.2,11.3
		s5.1,11.3,11.2,11.3C251.8,405.8,257.2,402.5,257.2,398.2L257.2,398.2z"/>
	<polygon class="st4" points="102.9,109 135.4,90.3 167.9,109 135.4,127.8 	"/>
	<polygon class="st4" points="251.3,109 283.8,90.3 316.3,109 283.8,127.8 	"/>
	<polygon class="st4" points="147.1,309.1 179.6,290.3 212.1,309.1 179.6,327.9 	"/>
	<polygon class="st4" points="295.3,271.5 327.8,252.8 360.3,271.5 327.8,290.3 	"/>
</g>
</svg>
